<svg id="Layer_1" data-name="Layer 1" xmlns="http://www.w3.org/2000/svg" viewBox="102.65 100.72 5824.1 188.22" preserveAspectRatio="xMinYMin meet"><defs><style>.cls-1{fill:#fff;stroke-width:0}</style></defs><path class="cls-1" d="M1777.16 285.02h42.83V141.73h54.76v-38.42h-152.36v38.42h54.77v143.29zM1627.39 288.91c43.09 0 79.43-29.07 90.59-68.27h-42.31c-8.82 18.69-27 31.93-48.28 31.93-29.85 0-53.73-25.7-53.73-57.62s23.88-57.11 53.99-57.11c21.54 0 40.49 12.98 49.06 32.96h41.79c-10.64-40.23-47.5-69.3-90.85-69.3-51.92 0-94.23 42.05-94.23 93.7s42.31 93.71 93.97 93.71M1427 288.13c48.8 0 80.47-31.67 80.47-71.64V103.32h-41.53v106.94c0 30.11-18.17 41.53-37.64 41.53s-38.16-11.42-38.16-41.53V103.32h-42.83v113.69c0 36.6 30.89 71.12 79.69 71.12M1275.15 218.04c35.56-9.34 43.09-36.34 43.09-57.88 0-32.19-19.47-56.85-58.66-56.85h-100.45v181.7h42.83v-63.34h29.07l45.94 63.34h49.06l-50.88-66.97zm-25.7-33.22h-47.5v-44.39h48.28c15.57 0 23.62 8.56 23.62 21.8s-7.53 22.58-24.4 22.58zM1038.42 285.02h42.83V141.73h54.51v-38.42H983.65v38.42h54.77v143.29zM895.66 287.61c47.24 0 77.87-19.73 77.87-59.44 0-33.22-21.54-45.17-52.43-50.36l-37.38-6.23c-19.21-3.12-23.36-9.08-23.36-16.87 0-12.72 11.16-20.25 30.63-20.25 17.91 0 32.71 6.23 36.6 24.14h43.61c-5.19-39.19-38.42-57.88-79.95-57.88-44.91 0-72.16 22.06-72.16 56.59 0 27 16.87 45.16 50.1 50.88l40.23 7.01c13.5 2.34 22.58 10.12 22.58 19.99 0 10.9-10.64 18.69-32.44 18.69s-38.68-8.3-41.27-24.14h-44.13c4.41 38.16 34.26 57.89 81.5 57.89M627.26 285.02h39.46V170.03l83.84 114.99h35.56V103.31h-39.46v109.8l-79.42-109.8h-39.98v181.71zM506.3 101.5c-51.91 0-94.22 42.05-94.22 93.7s42.31 93.71 94.22 93.71 93.96-42.05 93.96-93.71-42.31-93.7-93.96-93.7zm-.26 151.07c-29.85 0-53.73-25.7-53.73-57.62s23.88-57.11 53.73-57.11 53.99 25.18 53.99 57.11-24.14 57.62-53.99 57.62zM311.37 245.04h42.31l36.34-49.84-36.34-49.83h-42.31l37.37 49.83-37.37 49.84zM196.64 288.91c43.09 0 79.43-29.07 90.59-68.27h-42.31c-8.82 18.69-27 31.93-48.28 31.93-29.85 0-53.73-25.7-53.73-57.62s23.88-57.11 53.99-57.11c21.54 0 40.49 12.98 49.06 32.96h41.79c-10.64-40.23-47.5-69.3-90.85-69.3-51.91 0-94.22 42.05-94.22 93.7s42.31 93.71 93.96 93.71M2209.08 218.04c35.56-9.34 43.09-36.34 43.09-57.88 0-32.19-19.47-56.85-58.66-56.85h-100.45v181.7h42.83v-63.34h29.07l45.94 63.34h49.06l-50.88-66.97zm-25.69-33.22h-47.5v-44.39h48.28c15.58 0 23.62 8.56 23.62 21.8s-7.53 22.58-24.4 22.58zM1973.13 101.5c-51.92 0-94.22 42.05-94.22 93.7s42.31 93.71 94.22 93.71 93.96-42.05 93.96-93.71-42.31-93.7-93.96-93.7zm-.26 151.07c-29.85 0-53.73-25.7-53.73-57.62s23.88-57.11 53.73-57.11 53.99 25.18 53.99 57.11-24.14 57.62-53.99 57.62z"/><g><path class="cls-1" d="M2386.98 103.45h14.45v181.91h-14.45V103.45zM2448.2 103.45h20.34l83.47 120.92c10.43 15.25 20.59 30.76 29.69 44.94h.53c-.26-24.08-.8-43.07-.8-66.61v-99.25h13.64v181.91h-18.73l-75.71-109.95c-13.12-19-26.76-38.26-39.33-58.86h-.53c.53 25.95.53 58.86.53 83.47v85.34h-13.11V103.45zM2631.61 233.46h14.71c3.75 29.42 27.56 42 60.73 42 29.43 0 51.36-12.04 51.36-36.64 0-16.86-8.03-24.35-19.26-29.43-10.7-5.35-23.27-7.22-37.45-9.63-16.59-2.94-28.09-5.08-40.13-10.97-13.38-6.69-21.94-18.19-21.94-36.38 0-32.1 26.22-51.63 62.07-51.63s62.86 16.05 67.15 52.17h-14.98c-3.74-27.02-25.15-39.6-52.97-39.6s-47.35 14.98-47.35 37.72c0 25.15 23.01 30.23 49.23 34.51 22.74 3.74 39.32 7.22 51.09 14.98 11.23 7.22 19 17.66 19 36.64 0 33.17-28.09 50.83-66.35 50.83-42 0-71.43-17.39-74.91-54.57zM2850.54 116.28H2785v-12.84h145.52v12.84h-65.54v169.07h-14.44V116.28zM2956.5 103.45h14.44v181.91h-14.44V103.45zM3062.15 116.28h-65.55v-12.84h145.54v12.84h-65.55v169.07h-14.44V116.28zM3169.12 222.76V103.45h13.91v116.1c0 35.85 24.07 56.45 60.72 56.45s59.39-20.6 59.39-56.45v-116.1h13.38v118.78c0 35.58-25.15 66.34-73.84 66.34s-73.57-30.76-73.57-65.81zM3409.21 116.28h-65.54v-12.84h145.53v12.84h-65.54v169.07h-14.45V116.28zM3515.17 103.45h122.26v12.84h-108.34v70.62h73.57v12.84h-73.57v72.5h111.02v13.11h-124.93V103.45zM3731.08 193.6c0-53.77 37.98-92.83 91.49-92.83s90.69 39.06 90.69 92.83-37.72 94.43-90.69 94.43-91.49-39.59-91.49-94.43zm167.48 0c0-46.82-31.57-80.26-76.25-80.26s-76.24 33.44-76.24 80.26 31.57 81.86 76.24 81.86 76.25-34.24 76.25-81.86zM3949.48 103.45h124.93v12.84h-111.02v70.89h78.65v12.84h-78.65v85.34h-13.91V103.45zM4215.43 116.28h-65.54v-12.84h145.52v12.84h-65.54v169.07h-14.44V116.28zM4321.39 103.45h122.25v12.84H4335.3v70.62h73.57v12.84h-73.57v72.5h111.02v13.11h-124.93V103.45zM4453.28 194.13c0-54.31 36.12-93.37 86.95-93.37 42.27 0 73.03 24.61 82.93 65.01h-14.98c-8.82-33.44-34.24-52.44-68.49-52.44-41.73 0-71.16 33.71-71.16 80.26s29.16 81.86 73.3 81.86c32.91 0 58.32-18.45 67.42-54.04h14.45c-9.63 41.2-40.66 66.61-82.4 66.61-52.97 0-88.02-39.59-88.02-93.9zM4658.31 103.45h13.91v82.66h118.52v-82.66h13.91v181.91h-13.91v-86.41h-118.52v86.41h-13.91V103.45zM4851.81 103.45h20.33l83.47 120.92c10.44 15.25 20.6 30.76 29.7 44.94h.53c-.26-24.08-.81-43.07-.81-66.61v-99.25h13.64v181.91h-18.73l-75.71-109.95c-13.11-19-26.75-38.26-39.32-58.86h-.53c.53 25.95.53 58.86.53 83.47v85.34h-13.11V103.45zM5035.16 193.6c0-53.77 37.98-92.83 91.49-92.83s90.69 39.06 90.69 92.83-37.72 94.43-90.69 94.43-91.49-39.59-91.49-94.43zm167.47 0c0-46.82-31.57-80.26-76.24-80.26s-76.25 33.44-76.25 80.26 31.57 81.86 76.25 81.86 76.24-34.24 76.24-81.86zM5253.56 103.45h14.18v169.07h103.8v12.84h-117.97V103.45zM5377.82 193.6c0-53.77 37.98-92.83 91.49-92.83S5560 139.83 5560 193.6s-37.72 94.43-90.69 94.43-91.49-39.59-91.49-94.43zm167.46 0c0-46.82-31.57-80.26-76.24-80.26s-76.25 33.44-76.25 80.26 31.57 81.86 76.25 81.86 76.24-34.24 76.24-81.86zM5585.22 196.01c0-56.45 37.72-95.24 90.96-95.24 41.73 0 71.16 21.94 81.86 54.84h-15.51c-9.37-25.41-33.98-42.27-66.35-42.27-44.68 0-76.24 32.38-76.24 81.86s32.1 80.25 78.38 80.25c37.72 0 66.35-24.07 70.62-70.09h-65.01v-11.77h80.8v91.76h-10.7l-1.08-54.04c-9.89 36.92-37.98 56.71-76.78 56.71-54.31 0-90.96-37.98-90.96-92.02zM5842.2 208.85l-70.62-105.4h17.12l40.93 61.79c7.76 12.31 14.18 21.41 19.8 30.5h.8c5.35-8.56 10.97-17.39 18.73-29.16l41.47-63.13h16.32l-70.36 105.4v76.51h-14.18v-76.51z"/></g></svg>
